<svg xmlns="http://www.w3.org/2000/svg" xmlns:xlink="http://www.w3.org/1999/xlink" width="1920" zoomAndPan="magnify" viewBox="0 0 1440 809.999993" height="1080" preserveAspectRatio="xMidYMid meet" version="1.0"><defs><g/></defs><rect x="-144" width="1728" fill="#ffffff" y="-80.999999" height="971.999992" fill-opacity="1"/><rect x="-144" width="1728" fill="#ffffff" y="-80.999999" height="971.999992" fill-opacity="1"/><path stroke-linecap="butt" transform="matrix(1.082536, 0, 0, 1.082536, 59.367894, 233.165487)" fill="none" stroke-linejoin="miter" d="M 50.668849 50.35786 L 73.098817 50.35786 L 69.923403 31.099697 L 5.62849 31.099697 L 2.456685 50.35786 L 24.886653 50.35786 L 24.886653 120.999992 L 50.668849 120.999992 Z M 139.461357 101.745437 L 107.328335 101.745437 L 107.328335 85.662688 L 133.081662 85.662688 L 133.081662 66.408133 L 107.328335 66.408133 L 107.328335 50.35786 L 136.285943 50.35786 L 133.081662 31.099697 L 81.694085 31.099697 L 81.694085 120.999992 L 136.285943 120.999992 Z M 209.497274 101.745437 L 177.36786 101.745437 L 177.36786 85.662688 L 203.121187 85.662688 L 203.121187 66.408133 L 177.36786 66.408133 L 177.36786 50.35786 L 206.325469 50.35786 L 203.121187 31.099697 L 151.73361 31.099697 L 151.73361 120.999992 L 206.325469 120.999992 Z M 221.769527 31.099697 L 221.769527 120.999992 L 241.024081 120.999992 L 241.024081 67.035999 L 269.98169 120.999992 L 298.791354 120.999992 L 298.791354 31.099697 L 279.536799 31.099697 L 279.536799 85.06369 L 250.698268 31.099697 Z M 351.398579 95.365742 L 358.766982 120.999992 L 384.401232 120.999992 L 358.766982 31.099697 L 333.013654 31.099697 L 307.379405 120.999992 L 326.633959 120.999992 L 334.002363 95.365742 Z M 347.746853 82.487274 L 337.686564 82.487274 L 342.716709 64.820427 Z M 470.887957 69.612415 L 432.256161 69.612415 L 429.05188 82.487274 L 445.134629 82.487274 L 445.134629 104.917243 C 444.384077 105.667795 443.518055 106.147716 442.677292 106.537425 C 441.81127 107.013738 440.822562 107.37458 439.714775 107.645212 C 438.484302 108.002446 437.13836 108.121524 435.550653 108.121524 C 432.85516 108.121524 430.401431 107.255502 428.304936 105.548717 C 426.237309 103.841932 424.501656 101.626359 423.152106 98.689102 C 421.687085 95.845663 420.698377 92.551171 419.9803 88.866969 C 419.229748 85.182768 418.991592 81.502174 418.991592 77.576208 C 418.991592 73.415694 419.348826 69.374259 420.218456 65.300347 C 420.9654 61.377989 422.195873 57.841733 423.902658 54.637452 C 425.490365 51.465646 427.583251 48.889231 430.040588 46.911814 C 432.497926 44.938006 435.312497 43.978165 438.754934 43.978165 C 441.930348 43.978165 444.503155 44.696242 446.59965 45.923106 C 448.548199 47.272657 450.283852 48.741286 451.510716 50.35786 C 452.979345 52.302801 454.087131 54.399296 454.805208 56.733947 L 464.389184 47.153579 C 462.292689 44.216321 459.83896 41.643514 457.143467 39.186177 C 454.68613 37.20876 451.75248 35.382897 448.187357 33.676112 C 444.503155 31.94046 440.342641 31.099697 435.550653 31.099697 C 427.944094 31.099697 421.445321 32.449248 415.816178 35.144741 C 410.154559 37.840234 405.36618 41.282672 401.710845 45.565872 C 398.026644 49.96815 395.212072 54.879216 393.357342 60.270203 C 391.408793 65.809135 390.542771 71.438278 390.542771 77.099896 C 390.542771 82.729039 391.408793 88.120025 393.115578 93.388326 C 394.822363 98.689102 397.517856 103.333144 400.963902 107.37458 C 404.406339 111.56757 408.808617 114.862061 413.957839 117.31579 C 419.11067 119.773128 425.2486 120.999992 432.256161 120.999992 C 435.788809 120.999992 439.115777 120.761836 442.168504 120.253048 C 445.134629 119.773128 447.949201 119.022575 450.40293 118.066343 C 452.860267 117.196712 455.16605 116.208004 457.143467 114.981139 C 459.117275 113.873353 460.946747 112.646489 462.411767 111.448492 C 465.857813 108.720522 468.672384 105.429639 470.887957 101.745437 Z M 538.462928 101.745437 L 506.329905 101.745437 L 506.329905 85.662688 L 532.083233 85.662688 L 532.083233 66.408133 L 506.329905 66.408133 L 506.329905 50.35786 L 535.287514 50.35786 L 532.083233 31.099697 L 480.695656 31.099697 L 480.695656 120.999992 L 535.287514 120.999992 Z M 538.462928 101.745437 " stroke="#745045" stroke-width="13.186703" stroke-opacity="1" stroke-miterlimit="4"/><g fill="#ca7e7c" fill-opacity="1"><g transform="translate(59.367894, 364.152352)"><g><path d="M 54.839844 -76.484375 L 79.140625 -76.484375 L 75.6875 -97.332031 L 6.109375 -97.332031 L 2.65625 -76.484375 L 26.957031 -76.484375 L 26.957031 0 L 54.839844 0 Z M 54.839844 -76.484375 "/></g></g></g><g fill="#ca7e7c" fill-opacity="1"><g transform="translate(141.160319, 364.152352)"><g><path d="M 69.179688 -20.847656 L 34.390625 -20.847656 L 34.390625 -38.242188 L 62.277344 -38.242188 L 62.277344 -59.089844 L 34.390625 -59.089844 L 34.390625 -76.484375 L 65.726562 -76.484375 L 62.277344 -97.332031 L 6.640625 -97.332031 L 6.640625 0 L 65.726562 0 Z M 69.179688 -20.847656 "/></g></g></g><g fill="#ca7e7c" fill-opacity="1"><g transform="translate(216.977654, 364.152352)"><g><path d="M 69.179688 -20.847656 L 34.390625 -20.847656 L 34.390625 -38.242188 L 62.277344 -38.242188 L 62.277344 -59.089844 L 34.390625 -59.089844 L 34.390625 -76.484375 L 65.726562 -76.484375 L 62.277344 -97.332031 L 6.640625 -97.332031 L 6.640625 0 L 65.726562 0 Z M 69.179688 -20.847656 "/></g></g></g><g fill="#ca7e7c" fill-opacity="1"><g transform="translate(292.794988, 364.152352)"><g><path d="M 6.640625 -97.332031 L 6.640625 0 L 27.484375 0 L 27.484375 -58.425781 L 58.824219 0 L 90.027344 0 L 90.027344 -97.332031 L 69.179688 -97.332031 L 69.179688 -38.90625 L 37.976562 -97.332031 Z M 6.640625 -97.332031 "/></g></g></g><g fill="#ca7e7c" fill-opacity="1"><g transform="translate(389.458773, 364.152352)"><g><path d="M 50.324219 -27.75 L 58.292969 0 L 86.042969 0 L 58.292969 -97.332031 L 30.40625 -97.332031 L 2.65625 0 L 23.503906 0 L 31.46875 -27.75 Z M 46.339844 -41.695312 L 35.453125 -41.695312 L 40.898438 -60.816406 Z M 46.339844 -41.695312 "/></g></g></g><g fill="#ca7e7c" fill-opacity="1"><g transform="translate(478.155736, 364.152352)"><g><path d="M 90.957031 -55.636719 L 49.128906 -55.636719 L 45.675781 -41.695312 L 63.074219 -41.695312 L 63.074219 -17.394531 C 62.277344 -16.597656 61.347656 -16.066406 60.417969 -15.667969 C 59.488281 -15.136719 58.425781 -14.738281 57.230469 -14.472656 C 55.902344 -14.074219 54.441406 -13.941406 52.714844 -13.941406 C 49.792969 -13.941406 47.136719 -14.871094 44.882812 -16.730469 C 42.625 -18.589844 40.765625 -20.980469 39.304688 -24.167969 C 37.710938 -27.21875 36.648438 -30.804688 35.851562 -34.789062 C 35.054688 -38.773438 34.789062 -42.757812 34.789062 -47.003906 C 34.789062 -51.519531 35.1875 -55.902344 36.117188 -60.285156 C 36.914062 -64.53125 38.242188 -68.382812 40.101562 -71.835938 C 41.828125 -75.289062 44.085938 -78.078125 46.738281 -80.203125 C 49.394531 -82.324219 52.449219 -83.386719 56.167969 -83.386719 C 59.621094 -83.386719 62.410156 -82.589844 64.664062 -81.265625 C 66.789062 -79.804688 68.648438 -78.210938 69.976562 -76.484375 C 71.570312 -74.359375 72.765625 -72.101562 73.5625 -69.578125 L 83.917969 -79.9375 C 81.660156 -83.121094 79.007812 -85.910156 76.085938 -88.566406 C 73.429688 -90.691406 70.242188 -92.683594 66.390625 -94.542969 C 62.410156 -96.402344 57.894531 -97.332031 52.714844 -97.332031 C 44.484375 -97.332031 37.445312 -95.871094 31.335938 -92.949219 C 25.230469 -90.027344 20.050781 -86.308594 16.066406 -81.660156 C 12.082031 -76.882812 9.03125 -71.570312 7.039062 -65.726562 C 4.914062 -59.753906 3.984375 -53.644531 3.984375 -47.535156 C 3.984375 -41.429688 4.914062 -35.585938 6.773438 -29.875 C 8.632812 -24.167969 11.550781 -19.121094 15.269531 -14.738281 C 18.988281 -10.222656 23.769531 -6.640625 29.34375 -3.984375 C 34.921875 -1.328125 41.5625 0 49.128906 0 C 52.980469 0 56.566406 -0.265625 59.886719 -0.796875 C 63.074219 -1.328125 66.125 -2.125 68.78125 -3.1875 C 71.4375 -4.117188 73.960938 -5.179688 76.085938 -6.507812 C 78.210938 -7.703125 80.203125 -9.03125 81.792969 -10.355469 C 85.511719 -13.277344 88.566406 -16.863281 90.957031 -20.847656 Z M 90.957031 -55.636719 "/></g></g></g><g fill="#ca7e7c" fill-opacity="1"><g transform="translate(573.09337, 364.152352)"><g><path d="M 69.179688 -20.847656 L 34.390625 -20.847656 L 34.390625 -38.242188 L 62.277344 -38.242188 L 62.277344 -59.089844 L 34.390625 -59.089844 L 34.390625 -76.484375 L 65.726562 -76.484375 L 62.277344 -97.332031 L 6.640625 -97.332031 L 6.640625 0 L 65.726562 0 Z M 69.179688 -20.847656 "/></g></g></g><path stroke-linecap="butt" transform="matrix(0.75, 0, 0, 0.75, 40.860657, 335.06769)" fill="none" stroke-linejoin="miter" d="M 39.722251 229.352467 L 52.732668 229.352467 L 52.732668 112.633711 L 39.722251 112.633711 L 39.722251 69.732667 L 145.263923 69.732667 C 174.206633 69.732667 197.201426 77.66496 214.25351 93.529544 C 231.347261 109.399336 239.894136 135.185796 239.894136 170.899339 C 239.894136 206.566008 231.347261 232.331634 214.25351 248.201426 C 197.201426 264.066011 174.206633 271.998303 145.263923 271.998303 L 39.722251 271.998303 Z M 140.571214 229.352467 C 146.451423 229.352467 150.873298 227.805592 153.831632 224.71705 C 156.795174 221.586842 158.27434 216.722258 158.27434 210.118091 L 158.27434 131.612879 C 158.27434 118.789962 152.373298 112.378503 140.571214 112.378503 L 125.529547 112.378503 L 125.529547 229.352467 Z M 248.72747 271.998303 L 248.72747 229.352467 L 261.737887 229.352467 L 261.737887 112.378503 L 248.72747 112.378503 L 248.72747 69.732667 L 347.482683 69.732667 L 347.482683 112.378503 L 334.534766 112.378503 L 334.534766 229.352467 L 347.482683 229.352467 L 347.482683 271.998303 Z M 357.909767 271.998303 L 357.909767 229.352467 L 370.920184 229.352467 L 370.920184 112.378503 L 357.909767 112.378503 L 357.909767 69.732667 L 467.581648 69.732667 L 467.581648 112.378503 L 443.717063 112.378503 L 443.717063 229.352467 L 467.071231 229.352467 L 467.071231 205.425383 L 518.8004 205.425383 L 518.8004 271.998303 Z M 527.664984 271.998303 L 527.664984 229.352467 L 540.675401 229.352467 L 540.675401 112.378503 L 527.664984 112.378503 L 527.664984 69.732667 L 703.149368 69.732667 L 703.149368 148.23788 L 644.888948 148.23788 L 644.888948 112.378503 L 613.47228 112.378503 L 613.47228 153.446213 L 636.321239 153.446213 L 636.321239 183.081631 L 613.47228 183.081631 L 613.47228 229.352467 L 644.888948 229.352467 L 644.888948 188.284757 L 703.149368 188.284757 L 703.149368 271.998303 Z M 999.758758 112.378503 L 986.74834 112.378503 L 986.74834 229.352467 L 999.758758 229.352467 L 999.758758 271.998303 L 901.513961 271.998303 L 901.513961 229.352467 L 913.951462 229.352467 L 913.951462 138.404546 L 869.779584 271.998303 L 831.316041 271.998303 L 785.81083 139.670171 L 785.81083 229.352467 L 798.253539 229.352467 L 798.253539 271.998303 L 713.013952 271.998303 L 713.013952 229.352467 L 726.024369 229.352467 L 726.024369 112.378503 L 713.013952 112.378503 L 713.013952 69.732667 L 832.076458 69.732667 L 859.118126 150.842047 L 885.071252 69.732667 L 999.758758 69.732667 Z M 1296.894189 112.378503 L 1283.883772 112.378503 L 1283.883772 229.352467 L 1296.894189 229.352467 L 1296.894189 271.998303 L 1198.644184 271.998303 L 1198.644184 229.352467 L 1211.086893 229.352467 L 1211.086893 138.404546 L 1166.909808 271.998303 L 1128.451472 271.998303 L 1082.946262 139.670171 L 1082.946262 229.352467 L 1095.383762 229.352467 L 1095.383762 271.998303 L 1010.149383 271.998303 L 1010.149383 229.352467 L 1023.159801 229.352467 L 1023.159801 112.378503 L 1010.149383 112.378503 L 1010.149383 69.732667 L 1129.211889 69.732667 L 1156.248349 150.842047 L 1182.206684 69.732667 L 1296.894189 69.732667 Z M 1498.066074 229.352467 L 1508.472325 229.352467 L 1508.472325 271.998303 L 1406.607736 271.998303 L 1406.607736 229.352467 L 1422.159821 229.352467 L 1418.03482 208.597258 L 1382.680652 208.597258 L 1378.493152 229.352467 L 1394.107736 229.352467 L 1394.107736 271.998303 L 1305.185856 271.998303 L 1305.185856 229.352467 L 1315.597315 229.352467 L 1359.513984 69.732667 L 1454.144197 69.732667 Z M 1388.394194 180.987881 L 1412.321278 180.987881 L 1401.65982 129.26392 L 1399.055653 129.26392 Z M 1388.394194 180.987881 " stroke="#ca7e7c" stroke-width="9.748725" stroke-opacity="1" stroke-miterlimit="4"/></svg>